#!OML:ASF F:\VICON\USERDATA\INSTALL\Justin_Nancy\Justin_Nancy.ASF
:FULLY-SPECIFIED
:DEGREES
201
root -10.5601 17.617 -4.8394 0.951444 6.05737 0.426317
lowerback 5.73843 -1.24117 -2.04007
upperback 1.32136 -1.71029 2.92465
thorax -1.70455 -0.845227 4.28825
lowerneck -16.3019 -2.17474 -9.4335
upperneck 24.2363 -1.23084 3.08139
head 10.5759 -1.06024 2.522
rclavicle -2.32578e-014 2.06736e-014
rhumerus -34.5469 -17.0308 -75.6979
rradius 29.2027
rwrist 8.50739
rhand -12.7938 12.4006
rfingers 7.12502
rthumb 13.2919 -17.1555
lclavicle -2.32578e-014 2.06736e-014
lhumerus -29.0162 7.83631 83.8529
lradius 36.2095
lwrist -5.61529
lhand -16.6205 25.6472
lfingers 7.12502
lthumb 9.60155 55.4084
rfemur -19.1773 8.29933 16.4708
rtibia 23.1518
rfoot -5.83761 6.23682
rtoes 1.3303
lfemur -4.62573 -6.82553 -23.4307
ltibia 43.127
lfoot -3.33358 -10.6965
ltoes -13.4642
202
root -10.5762 17.6301 -4.72087 0.845089 6.46328 -0.0187681
lowerback 5.88076 -1.26488 -1.54532
upperback 1.39512 -1.71176 2.99217
thorax -1.72061 -0.847983 4.08121
lowerneck -16.6436 -2.22837 -9.48124
upperneck 24.2931 -1.26188 3.10999
head 10.6659 -1.07469 2.53668
rclavicle 1.2424e-014 -1.43125e-014
rhumerus -34.2728 -16.7745 -75.8714
rradius 29.0069
rwrist 8.48216
rhand -12.6043 12.8358
rfingers 7.12502
rthumb 13.4746 -16.7083
lclavicle 1.2424e-014 -1.43125e-014
lhumerus -29.1511 7.83321 83.8249
lradius 35.9785
lwrist -5.52581
lhand -16.8963 25.1729
lfingers 7.12502
lthumb 9.3354 54.9462
rfemur -18.4406 8.34541 17.1172
rtibia 22.8802
rfoot -6.05878 5.93746
rtoes 1.99538
lfemur -5.70728 -6.29482 -22.5633
ltibia 44.8729
lfoot -0.815574 -11.8369
ltoes -12.6603
203
root -10.5857 17.6493 -4.60112 0.802891 6.98785 -0.14149
lowerback 6.02174 -1.26912 -1.22203
upperback 1.39742 -1.69957 2.86575
thorax -1.8115 -0.841319 3.77016
lowerneck -16.6099 -2.14064 -8.99241
upperneck 23.9546 -1.21408 2.86355
head 10.5244 -1.02911 2.36772
rclavicle -5.06901e-015 1.90833e-014
rhumerus -34.2526 -16.6279 -76.1107
rradius 29.0181
rwrist 8.55412
rhand -12.5335 12.864
rfingers 7.12502
rthumb 13.5429 -16.6756
lclavicle -5.06901e-015 1.90833e-014
lhumerus -29.1791 7.89484 83.6526
lradius 35.4615
lwrist -5.89434
lhand -16.7255 24.0036
lfingers 7.12502
lthumb 9.50017 53.7694
rfemur -17.6578 8.0411 17.4037
rtibia 22.4927
rfoot -6.23458 5.8875
rtoes 1.87967
lfemur -6.88462 -5.94809 -22.0712
ltibia 46.6046
lfoot 1.82937 -12.9169
ltoes -10.2755
204
root -10.5921 17.6713 -4.47274 0.758078 7.4678 -0.185727
lowerback 6.15416 -1.22533 -0.962319
upperback 1.29139 -1.62551 2.71856
thorax -2.01191 -0.801438 3.47114
lowerneck -16.0341 -2.01877 -8.35166
upperneck 23.4016 -1.18774 2.51674
head 10.2021 -0.989969 2.13384
rclavicle -1.2424e-014 -2.38542e-015
rhumerus -34.6206 -16.6141 -76.1941
rradius 29.1193
rwrist 8.62575
rhand -12.309 12.5764
rfingers 7.12502
rthumb 13.7592 -16.9486
lclavicle -1.2424e-014 -2.38542e-015
lhumerus -29.5409 7.41698 83.5958
lradius 35.1504
lwrist -5.91334
lhand -16.5805 23.3468
lfingers 7.12502
lthumb 9.64007 53.1062
rfemur -16.7359 7.56615 17.6085
rtibia 21.9131
rfoot -6.24358 5.9779
rtoes 1.98913
lfemur -7.99143 -5.5693 -21.7163
ltibia 48.3211
lfoot 4.26662 -13.794
ltoes -8.82898
205
root -10.5997 17.6961 -4.34674 0.774382 8.08344 -0.594685
lowerback 6.20539 -1.25265 -0.43076
upperback 1.19827 -1.62413 2.74301
thorax -2.15091 -0.800859 3.19968
lowerneck -15.7593 -2.0287 -8.1847
upperneck 23.1845 -1.26354 2.48232
head 10.0737 -1.0101 2.08176
rclavicle -7.15625e-015 1.98785e-014
rhumerus -34.7814 -16.4317 -76.2542
rradius 29.2166
rwrist 8.69492
rhand -11.897 11.4551
rfingers 7.12502
rthumb 14.1562 -18.0426
lclavicle -7.15625e-015 1.98785e-014
lhumerus -29.7771 7.14626 83.6396
lradius 34.8283
lwrist -6.14337
lhand -16.4227 23.3882
lfingers 7.12502
lthumb 9.7924 53.1406
rfemur -15.8481 7.1639 18.1778
rtibia 21.217
rfoot -6.29876 5.80364
rtoes 2.33697
lfemur -9.30024 -5.28809 -20.9404
ltibia 50.0325
lfoot 6.00505 -14.7429
ltoes -7.799
206
root -10.6106 17.7155 -4.23005 0.72745 8.73641 -1.16197
lowerback 6.33095 -1.33866 0.18051
upperback 1.15278 -1.69145 2.86032
thorax -2.27833 -0.836222 2.98676
lowerneck -15.9615 -2.07435 -8.20859
upperneck 23.3447 -1.30192 2.48813
head 10.1727 -1.03122 2.08406
rclavicle -9.34288e-015 -1.51076e-014
rhumerus -34.668 -16.0461 -76.4425
rradius 29.2191
rwrist 9.0801
rhand -11.5239 9.67242
rfingers 7.12502
rthumb 14.5158 -19.7998
lclavicle -9.34288e-015 -1.51076e-014
lhumerus -29.9833 7.23203 83.6663
lradius 34.6207
lwrist -6.34164
lhand -16.3923 23.2986
lfingers 7.12502
lthumb 9.82169 53.0495
rfemur -14.9489 6.76259 18.9478
rtibia 20.4645
rfoot -6.40353 5.55533
rtoes 1.97283
lfemur -10.6564 -4.9905 -19.9884
ltibia 51.7215
lfoot 7.26941 -15.7182
ltoes -6.47215
207
root -10.6126 17.7339 -4.11381 0.665032 9.32498 -1.57238
lowerback 6.40067 -1.41317 0.658332
upperback 1.16395 -1.7527 2.99645
thorax -2.31285 -0.869143 2.86575
lowerneck -16.1416 -2.10384 -8.36052
upperneck 23.3796 -1.27881 2.4726
head 10.2207 -1.03544 2.107
rclavicle -3.77691e-015 2.3059e-014
rhumerus -34.3855 -15.4811 -76.5013
rradius 28.8334
rwrist 9.47455
rhand -11.7454 9.91322
rfingers 7.12502
rthumb 14.3024 -19.5742
lclavicle -3.77691e-015 2.3059e-014
lhumerus -30.0288 7.49876 83.8067
lradius 34.2552
lwrist -6.61447
lhand -16.6056 23.5148
lfingers 7.12502
lthumb 9.61585 53.2754
rfemur -14.0075 6.33677 19.5188
rtibia 19.6818
rfoot -6.48303 5.33359
rtoes 2.25475
lfemur -11.9027 -4.67738 -19.2944
ltibia 53.3859
lfoot 8.00288 -16.4233
ltoes -4.86479
208
root -10.6142 17.7463 -3.99659 0.721874 9.70173 -1.78295
lowerback 6.32984 -1.36832 0.783017
upperback 1.13837 -1.68122 3.14976
thorax -2.30187 -0.833769 2.94708
lowerneck -16.104 -2.15832 -8.49885
upperneck 23.3779 -1.28378 2.33684
head 10.2157 -1.06552 2.08099
rclavicle 2.38542e-015 -1.59028e-014
rhumerus -34.2326 -15.1911 -76.3388
rradius 28.4588
rwrist 9.63634
rhand -12.0075 11.387
rfingers 7.12502
rthumb 14.0498 -18.1181
lclavicle 2.38542e-015 -1.59028e-014
lhumerus -30.0069 7.57516 84.0757
lradius 33.6871
lwrist -6.73113
lhand -16.7944 24.0656
lfingers 7.12502
lthumb 9.43373 53.8345
rfemur -13.2439 5.94939 19.8585
rtibia 18.9668
rfoot -6.49176 5.40877
rtoes 2.49051
lfemur -13.1395 -4.19032 -18.8804
ltibia 54.9743
lfoot 7.68226 -16.4624
ltoes -4.22716
209
root -10.6215 17.7568 -3.88656 0.726564 10.1214 -2.02642
lowerback 6.59084 -1.29802 0.949962
upperback 0.946924 -1.55949 3.24008
thorax -2.6527 -0.771202 2.94879
lowerneck -15.7078 -2.21909 -8.55655
upperneck 23.1878 -1.38287 2.30257
head 10.0789 -1.11688 2.06426
rclavicle -1.81888e-014 3.97569e-015
rhumerus -34.5704 -14.5729 -76.3139
rradius 28.6747
rwrist 9.18992
rhand -12.0064 11.5674
rfingers 7.12502
rthumb 14.0509 -17.9377
lclavicle -1.81888e-014 3.97569e-015
lhumerus -30.3189 7.71597 84.1682
lradius 33.2208
lwrist -7.05569
lhand -16.7527 23.7564
lfingers 7.12502
lthumb 9.47396 53.5235
rfemur -12.563 5.75028 20.2384
rtibia 18.4112
rfoot -6.44505 5.27194
rtoes 2.77698
lfemur -14.4009 -3.76071 -18.4256
ltibia 56.4682
lfoot 6.59718 -15.6072
ltoes -6.17343
